# xmcd
#
# Track frame offsets: 
#        150
#        19261
#        42173
#        80871
#        105984
#        151044
#        187367
#        213456
#        242772
#        273670
#        293311
#        312035
#
# Disc length: 4701 seconds
#
# Revision: 0
# Processed by: cddbd v1.5.2PL0 Copyright (c) Steve Scherf et al.
# Submitted via: ExactAudioCopy v1.1
#
DISCID=a1125b0c
DTITLE=David M'ore - Passion, Soul and Fire
DYEAR=2015
DGENRE=Blues-Rock
TTITLE0=The Devil's Ground
TTITLE1=Love Again
TTITLE2=Stronger Than I Realize
TTITLE3=Johan Sebastian Blues
TTITLE4=You Said You Love Me
TTITLE5=Sweet Little Baby
TTITLE6=The 12th Song
TTITLE7=Cold Blooded
TTITLE8=Every Time I Think Of You
TTITLE9=Funky it Up
TTITLE10=Liar
TTITLE11=Mistreated
EXTD=
EXTT0=
EXTT1=
EXTT2=
EXTT3=
EXTT4=
EXTT5=
EXTT6=
EXTT7=
EXTT8=
EXTT9=
EXTT10=
EXTT11=
PLAYORDER=
